<svg width="16" height="10" viewBox="0 0 16 10" fill="none" xmlns="http://www.w3.org/2000/svg">
<path d="M11.3535 0.146484L15.8535 4.64648C15.9512 4.74414 16 4.87208 16 5.00002C16 5.12795 15.9512 5.25586 15.8535 5.35352L11.3535 9.85352C11.1582 10.0488 10.8418 10.0488 10.6465 9.85352C10.4512 9.6582 10.4512 9.3418 10.6465 9.14648L14.293 5.50002H0.5C0.223625 5.50002 0 5.27639 0 5.00002C0 4.72364 0.223625 4.50002 0.5 4.50002H14.293L10.6465 0.853516C10.4512 0.658203 10.4512 0.341797 10.6465 0.146484C10.8418 -0.0488281 11.1582 -0.0488281 11.3535 0.146484Z" fill="#001A3F"/>
</svg>
