<svg width="14" height="16" viewBox="0 0 14 16" fill="none" xmlns="http://www.w3.org/2000/svg">
<path fill-rule="evenodd" clip-rule="evenodd" d="M7 0C3.10156 0 0 1.60156 0 3V12C0 12.7346 0.405813 13.3728 1 13.7205V15.5C1 15.7761 1.22388 16 1.5 16C1.77619 16 2 15.7761 2 15.5V14H12V15.5C12 15.7761 12.2239 16 12.5 16C12.7762 16 13 15.7761 13 15.5V13.7205C13.5942 13.3728 14 12.7346 14 12V3C14 1.60156 10.8984 0 7 0ZM3.75 11C3.75 11.4142 3.41419 11.75 3 11.75C2.58581 11.75 2.25 11.4142 2.25 11C2.25 10.5858 2.58581 10.25 3 10.25C3.41419 10.25 3.75 10.5858 3.75 11ZM11.75 11C11.75 11.4142 11.4142 11.75 11 11.75C10.5858 11.75 10.25 11.4142 10.25 11C10.25 10.5858 10.5858 10.25 11 10.25C11.4142 10.25 11.75 10.5858 11.75 11ZM12 13C12.5514 13 13 12.5514 13 12V9H1L0.999937 8.99994L1 12C1 12.5514 1.44859 13 2 13H12ZM13 8H0.999938L0.999875 4H13V8ZM7 1C3.27703 1 1.06409 2.49866 1.00159 3H13C12.9452 2.50456 10.7297 1 7 1Z" fill="#A29090"/>
</svg>
