<svg width="16" height="14" viewBox="0 0 16 14" fill="none" xmlns="http://www.w3.org/2000/svg">
<path fill-rule="evenodd" clip-rule="evenodd" d="M11.75 2H14C15.1046 2 16 2.89544 16 4V12C16 13.1046 15.1046 14 14 14H2C0.895437 14 0 13.1046 0 12V4C0 2.89544 0.895437 2 2 2H4.25L4.51519 1.29541C4.80859 0.516062 5.55419 0 6.38703 0H9.61297C10.4458 0 11.1914 0.516062 11.4848 1.29541L11.75 2ZM14 13C14.55 13 15 12.55 15 12V4C15 3.45 14.55 3 14 3H11.0547L10.5514 1.65056C10.4055 1.25941 10.0319 1 9.61444 1H6.38556C5.96809 1 5.59447 1.25941 5.44859 1.65056L4.94531 3H2C1.45 3 1 3.45 1 4V12C1 12.55 1.45 13 2 13H14ZM8 4.25C5.92969 4.25 4.25 5.92969 4.25 8C4.25 10.0703 5.92969 11.75 8 11.75C10.0703 11.75 11.75 10.0703 11.75 8C11.75 5.92969 10.0703 4.25 8 4.25ZM5.25 8C5.25 9.51562 6.48438 10.75 8 10.75C9.51562 10.75 10.75 9.51562 10.75 8C10.75 6.48438 9.51562 5.25 8 5.25C6.48438 5.25 5.25 6.48438 5.25 8Z" fill="#A29090"/>
</svg>
