<svg width="96" height="96" viewBox="0 0 96 96" xmlns="http://www.w3.org/2000/svg">
    <g fill-rule="nonzero" fill="none">
        <path d="M48 0C21.49 0 0 21.49 0 48s21.49 48 48 48 48-21.49 48-48S74.51 0 48 0zm23.303 52.096-28.8 17.6a4.798 4.798 0 0 1-2.503.705c-2.739 0-4.8-2.24-4.8-4.8V30.4c0-2.538 2.04-4.799 4.801-4.799.869 0 1.736.236 2.502.703l28.8 17.6a4.8 4.8 0 0 1 0 8.191z" fill="#FECD00"/>
        <path d="M40 70.4c-2.738 0-4.8-2.238-4.8-4.8V30.4c0-2.537 2.04-4.797 4.801-4.797.869 0 1.736.235 2.502.703l28.8 17.6a4.8 4.8 0 0 1 0 8.19l-28.8 17.6a4.797 4.797 0 0 1-2.503.705z" fill="#001A3F"/>
    </g>
</svg>
