<svg width="16" height="12" viewBox="0 0 16 12" fill="none" xmlns="http://www.w3.org/2000/svg">
<path fill-rule="evenodd" clip-rule="evenodd" d="M15.9036 5.54392C14.3967 2.23728 11.4149 0 8 0C4.58506 0 1.60244 2.23875 0.0963611 5.54392C0.0433889 5.66255 0 5.86717 0 6C0 6.13331 0.0433889 6.33739 0.0963611 6.45603C1.60331 9.76267 4.58506 12 8 12C11.4149 12 14.3976 9.7612 15.9036 6.45603C15.9566 6.33739 16 6.13278 16 6C16 5.86669 15.9566 5.66255 15.9036 5.54392ZM4.44444 6C4.44444 4.10754 6.03706 2.57143 8 2.57143C9.96294 2.57143 11.5556 4.10754 11.5556 6V6.00147C11.5556 7.89321 9.96375 9.42857 8.00158 9.42857H8C6.03706 9.42857 4.44444 7.89246 4.44444 6ZM5.33333 6C5.33333 7.41793 6.52961 8.57143 8 8.57143C9.47108 8.57143 10.6667 7.41854 10.6667 6.00147C10.6667 4.58207 9.47044 3.42857 8 3.42857C6.52961 3.42857 5.33333 4.58207 5.33333 6ZM8 11.1429C10.9589 11.1429 13.6756 9.21485 15.0898 6.11121C15.0949 6.09573 15.1097 6.02507 15.1112 5.9944C15.1097 5.97485 15.095 5.90432 15.084 5.87539C13.6754 2.78515 10.9588 0.857143 8 0.857143C5.04108 0.857143 2.32439 2.78515 0.910167 5.88873C0.905056 5.90427 0.890306 5.9749 0.888778 6.0056C0.890306 6.02515 0.905 6.09562 0.915972 6.12455C2.32461 9.21482 5.04122 11.1429 8 11.1429Z" fill="#A29090"/>
</svg>
