<svg width="68" height="80" viewBox="0 0 68 80" fill="none" xmlns="http://www.w3.org/2000/svg">
<path fill-rule="evenodd" clip-rule="evenodd" d="M51.5836 55.7198C51.0138 54.8764 51.5109 53.2532 51.5109 53.2532L52.2469 54.2834C52.2469 54.2834 51.9257 55.0433 52.2997 55.4806C52.6721 55.9179 53.2219 55.7198 53.2219 55.7198L53.4912 56.084C53.4912 56.084 52.1542 56.5631 51.5836 55.7198ZM53.6974 54.8989C53.2043 54.2185 52.374 52.2718 50.8972 51.0818C49.4195 49.8919 47.3569 50.9583 47.3569 50.9583C49.1422 51.0514 49.8039 51.6074 49.5882 53.9866C49.3724 56.3665 51.1888 57.1079 52.3124 57.4786C53.4352 57.8493 53.9435 59.0545 53.9435 59.0545L54.1129 57.1697C56.4217 57.3711 56.0213 55.207 56.0213 55.207C55.6824 56.3352 54.1896 55.5785 53.6974 54.8989Z" fill="#20274F"/>
<path fill-rule="evenodd" clip-rule="evenodd" d="M33.421 35.3211C33.421 35.3211 33.5281 35.9037 34.5669 36.5785C35.6042 37.2525 36.4441 37.5751 36.9788 39.1382C36.9788 39.1382 33.6655 39.8435 33.421 35.3211ZM58.7579 66.9222C58.6596 66.8019 58.1498 66.1929 57.5344 65.648C56.8472 65.0406 56.251 65.4554 55.7116 65.3816C55.1114 65.3006 54.8725 65.0302 54.8725 65.0302C54.8725 65.0302 54.938 67.3098 56.7049 67.6982C56.8152 67.7222 56.9135 67.7664 57.007 67.8185C58.0643 68.3248 57.9748 69.4442 57.6087 70.6141C57.2108 71.8867 55.4215 71.9292 55.4215 71.9292L55.1921 71.6741L53.3765 69.66L50.6889 68.9555C50.6889 68.9555 52.7963 70.7024 53.1927 71.7455C53.5898 72.7878 53.5595 73.1553 53.5595 73.1553C53.5595 73.1553 52.6892 73.2596 51.6319 73.1008C51.6343 73.1008 51.6367 73.1024 51.6383 73.1024C51.6383 73.1024 51.1484 73.0558 50.5251 72.8352C50.0296 72.6659 49.5446 72.4155 49.1266 72.0568C49.0922 72.0271 49.0587 71.9975 49.0243 71.9662C49.0179 71.9597 49.0099 71.9525 49.0027 71.9453C48.8765 71.8281 48.7542 71.7022 48.6431 71.5617C47.5747 70.2025 47.0177 68.8031 45.4369 67.4382C44.9814 67.0619 44.4388 66.6984 43.7579 66.3485C43.4423 66.1872 43.137 65.985 42.8421 65.7563C42.0853 65.2661 41.3437 64.6274 40.5965 63.3901C40.364 63.0049 40.161 62.6591 39.9772 62.3421C39.3882 61.3848 38.9686 60.5311 38.7657 60.0954C38.6658 59.8843 38.6282 59.7881 38.6282 59.7881C38.6282 59.7881 38.9575 59.4984 39.5944 58.9118C39.8461 58.6791 40.0459 58.4721 40.1969 58.3036C40.8786 57.506 41.6362 56.3875 42.1548 54.9439C43.332 51.6605 42.5704 48.9355 42.5528 48.8737C42.5528 48.8729 42.552 48.8713 42.552 48.8713C42.552 48.8713 41.6945 45.9097 39.2683 44.2431C37.921 43.2794 36.043 43.0828 34.7963 43.1887C31.4726 43.4711 29.3957 46.3999 29.3957 46.3999C34.2153 45.8992 36.2763 48.3618 36.0725 50.4055C35.8688 52.4501 34.4782 53.5638 32.8919 54.1881C31.9537 54.5572 30.9324 54.7594 29.864 54.7594C25.2769 54.7594 21.5584 51.0258 21.5584 46.42C21.5584 43.0306 23.5411 39.1879 30.2348 37.7949C31.0331 37.6288 32.836 37.4058 32.836 37.4058C33.7926 41.1466 37.5286 39.8892 37.5286 39.8892C38.6889 41.1682 39.1469 42.1961 39.3043 42.9311C39.3019 42.5155 39.2931 41.9803 39.2683 41.2846C39.2076 39.4912 37.9705 37.2982 35.3757 35.8732C33.0566 34.5989 33.1413 32.4188 33.1413 32.4188C33.1413 32.4188 34.5494 34.3727 35.9303 34.8308C38.9039 35.8162 39.9196 35.833 41.9559 38.0188C43.5326 39.7127 43.8354 41.0262 43.9937 42.1592C43.9929 42.0806 43.9921 42.0019 43.9921 41.9233C43.9921 35.3211 38.0688 29.3488 30.5472 29.3488C23.0265 29.3488 16.5949 35.5634 16.5949 43.1157C16.5949 50.6679 22.718 56.568 30.0166 56.568C31.666 56.568 35.2406 55.7632 36.8669 53.1449C37.8618 51.5425 38.5723 48.1283 35.7329 46.298C34.0283 45.4435 32.3341 45.4675 32.3341 45.4675C32.3341 45.4675 35.613 42.4577 39.552 46.412C43.9961 50.8749 40.328 59.9911 31.2073 61.319C31.2073 61.319 31.2329 61.3126 31.2729 61.3006C19.0195 63.3596 8.76329 54.7618 8.76329 42.4344C8.76329 40.6258 8.97666 38.8669 9.37464 37.1803L9.37064 37.1851C11.5835 26.5597 20.979 18.6078 32.2183 18.6078C44.1743 18.6078 54.0294 27.6381 55.3871 39.2762C55.5677 40.8176 55.4702 42.3791 55.1306 43.894L54.9979 44.4854C54.9979 44.4854 51.6032 44.6138 49.8346 40.0409C49.8754 40.4926 49.9058 40.9436 49.9258 41.3913C50.0832 44.8609 51.6967 46.5428 51.6967 46.5428C51.6967 46.5428 52.2465 47.1863 53.4676 48.0761C54.2036 48.6105 55.0683 49.3809 55.8003 50.8958L55.8242 50.9504C55.8242 50.9504 56.6809 52.5576 57.0334 55.2264C57.0965 55.707 57.2459 56.7389 57.4321 57.9979C58.0555 62.1495 58.7803 66.9624 58.7803 66.9624C58.7803 66.9624 58.7715 66.9455 58.7579 66.9222ZM58.8562 57.693C58.0179 52.9821 57.6231 48.016 57.6231 48.016C57.6231 48.016 61.5413 41.2669 58.2441 32.028C56.8599 28.1516 54.1668 24.5962 50.6442 21.8239C46.1242 18.2668 40.2393 16 33.9987 16C27.0174 16 20.6202 18.2307 15.807 22.1456C6.21401 24.1974 0.955623 27.2096 0.955623 27.2096C0.955623 27.2096 -2.38161 61.7941 34.0163 79.0378H34.0267C38.7505 76.7998 43.0307 74.0612 46.5102 71.3523C47.4628 72.4941 47.9319 73.1906 49.1338 73.7202C52.6157 75.2528 55.1809 73.7924 55.1809 73.7924C55.1809 73.7924 57.5848 73.6143 58.9713 71.589C61.1538 68.4019 59.4612 61.0928 58.8562 57.693Z" fill="#001A3F"/>
<path fill-rule="evenodd" clip-rule="evenodd" d="M50.5254 72.8355C50.0835 72.6791 49.576 72.4343 49.1277 72.0572C49.544 72.4167 50.0299 72.6654 50.5254 72.8355Z" fill="#FFE51F"/>
<path fill-rule="evenodd" clip-rule="evenodd" d="M49.0037 71.9462C49.0109 71.9526 49.0181 71.9598 49.0245 71.9655C49.0181 71.9598 49.0109 71.9526 49.0037 71.9462Z" fill="#FFE51F"/>
<path fill-rule="evenodd" clip-rule="evenodd" d="M33.4211 35.3211C33.4211 35.3211 33.5282 35.9037 34.5671 36.5777C35.6044 37.2525 36.4443 37.5751 36.9789 39.1381C36.9789 39.1381 33.6657 39.8435 33.4211 35.3211Z" fill="#FFFFFE"/>
<path fill-rule="evenodd" clip-rule="evenodd" d="M51.5112 53.2531L52.2472 54.2833C52.2472 54.2833 51.9259 55.0432 52.2991 55.4805C52.6723 55.9178 53.2221 55.7196 53.2221 55.7196L53.4914 56.0839C53.4914 56.0839 52.1545 56.563 51.5839 55.7196C51.0141 54.8763 51.5112 53.2531 51.5112 53.2531Z" fill="#FFFFFE"/>
<path fill-rule="evenodd" clip-rule="evenodd" d="M56.7049 67.6982C56.7049 67.6982 57.4833 70.8573 54.5872 71.0025L55.4223 71.9293C55.4223 71.9293 57.2108 71.8868 57.6087 70.6142C57.9835 69.4178 58.0714 68.2728 56.9359 67.7833C56.8631 67.748 56.788 67.7159 56.7049 67.6982Z" fill="#FFFFFE"/>
<path fill-rule="evenodd" clip-rule="evenodd" d="M49.9262 41.3917C49.5066 32.1271 45.0098 21.9534 29.2323 21.9534C20.2731 21.9534 12.6084 28.075 9.48217 36.7369V36.7385C9.01307 38.5584 8.76294 40.4673 8.76294 42.4348C8.76294 54.7614 19.02 63.3599 31.2725 61.301C31.9933 61.0899 38.9179 58.917 39.1873 53.1044C39.3735 49.11 37.5466 47.2075 35.7325 46.2984C38.5727 48.1287 37.8615 51.5421 36.8665 53.1445C35.2411 55.7628 31.6657 56.5684 30.017 56.5684C22.7184 56.5684 16.5954 50.6683 16.5954 43.1161C16.5954 35.5638 23.0269 29.3484 30.5477 29.3484C38.0693 29.3484 43.9917 35.3215 43.9917 41.9237C43.9917 44.7233 44.8876 47.9072 51.6971 46.5423C51.6971 46.5423 50.0828 44.8605 49.9262 41.3917Z" fill="#FFFFFE"/>
<path fill-rule="evenodd" clip-rule="evenodd" d="M39.5519 46.4122C35.6129 42.4571 32.334 45.467 32.334 45.467C32.334 45.467 39.5471 45.3554 39.1875 53.1043C38.903 59.2354 31.208 61.3193 31.208 61.3193C40.3279 59.9905 43.9968 50.8752 39.5519 46.4122Z" fill="#D9AF00"/>
<path fill-rule="evenodd" clip-rule="evenodd" d="M48.2864 67.4146C47.5536 64.3181 46.3101 64.8758 43.4708 63.3424C40.6314 61.8098 40.5739 57.8411 40.5739 57.8411C40.5683 57.8379 40.2734 58.2816 39.5941 58.9115C38.9588 59.5005 38.6279 59.7877 38.6279 59.7877C38.6279 59.7877 38.6671 59.8872 38.771 60.1047C38.9748 60.5428 39.3919 61.3909 39.9777 62.3426C40.1607 62.6595 40.3653 63.0054 40.597 63.3905C41.3434 64.627 42.085 65.2657 42.8426 65.756C43.1375 65.9855 43.442 66.1877 43.7577 66.349C44.4393 66.698 44.9811 67.0623 45.4383 67.4378C45.4375 67.4378 45.4375 67.4378 45.4375 67.437C47.0174 68.8019 47.5744 70.2021 48.6428 71.5614C49.7121 72.9207 51.638 73.1028 51.638 73.1028C48.9513 72.2747 49.0192 70.5111 48.2864 67.4146Z" fill="#D9AF00"/>
<path fill-rule="evenodd" clip-rule="evenodd" d="M55.3873 39.2759C54.0296 27.6379 44.1745 18.6084 32.2185 18.6084C20.9785 18.6084 11.5837 26.5594 9.37085 37.1849L9.37485 37.1809C9.41001 37.0332 9.44357 36.8848 9.48193 36.7379V36.7371C12.6082 28.0752 20.2728 21.9536 29.232 21.9536C44.2456 21.9536 49.0445 31.166 49.8349 40.0414C51.6034 44.6136 54.9981 44.4852 54.9981 44.4852L55.1308 43.8938C55.4704 42.3797 55.5679 40.8174 55.3873 39.2759Z" fill="#D9AF00"/>
<path fill-rule="evenodd" clip-rule="evenodd" d="M43.9942 42.1588C43.8351 41.0258 43.5331 39.7123 41.9556 38.0192C39.9193 35.8326 38.9044 35.8158 35.93 34.8304C34.5499 34.3731 33.1418 32.4184 33.1418 32.4184C33.1418 32.4184 33.0563 34.5993 35.3762 35.8736C37.971 37.2986 39.2081 39.4908 39.2688 41.2842C39.3511 43.7203 39.2688 44.2434 39.2688 44.2434C41.6942 45.9092 42.5517 48.8709 42.5517 48.8709C42.5517 48.8709 42.5525 48.8733 42.5533 48.8741C42.5525 48.8733 42.5509 48.8677 42.5509 48.8677C42.5509 48.8677 44.2771 50.3449 47.6359 49.1485C50.7645 48.0348 51.5869 46.7365 51.6852 46.5632C51.6924 46.5512 51.6972 46.5423 51.6972 46.5423C45.077 47.8687 44.0461 44.8982 43.9942 42.1588Z" fill="#D9AF00"/>
<path fill-rule="evenodd" clip-rule="evenodd" d="M57.0333 55.2262C56.6817 52.5582 55.8242 50.9501 55.8242 50.9501L54.6454 53.16C54.6454 53.16 53.9374 52.0157 52.2544 51.0657C50.955 50.3315 48.9124 50.5313 48.9124 50.5313L48.9148 50.5329C49.5469 50.4815 50.2733 50.5802 50.8966 51.0817C52.3743 52.2717 53.2046 54.2183 53.6968 54.8988C54.1891 55.5784 55.6827 56.3351 56.0208 55.2077C56.0208 55.2077 56.2134 56.2621 55.5437 56.8302C55.785 57.1888 55.9904 57.6053 56.1031 58.0851C56.398 59.3385 54.7429 61.314 56.2541 64.3463L54.8061 64.1096L54.8724 65.0308C54.8724 65.0308 55.1113 65.3004 55.7115 65.3822C56.2509 65.456 56.8479 65.0404 57.5343 65.6486C58.22 66.2552 58.7794 66.9477 58.7794 66.9477C58.7794 66.9477 57.2762 57.0685 57.0333 55.2262Z" fill="#FFFFFE"/>
<path fill-rule="evenodd" clip-rule="evenodd" d="M46.5266 71.3718C42.9935 74.1521 38.8604 76.7479 34.0263 79.0379H34.0167C3.30552 64.4887 0.883303 37.5945 0.875311 29.5448C0.873713 28.0547 0.956025 27.2098 0.956025 27.2098C0.956025 27.2098 0.964816 27.205 0.9792 27.1961C0.986393 27.1929 0.993585 27.1881 1.00397 27.1825C1.01117 27.1793 1.01676 27.1761 1.02475 27.1713C1.04313 27.1616 1.06391 27.1496 1.09028 27.136L1.09348 27.1336C1.12225 27.1183 1.15501 27.1007 1.19177 27.0814C1.19897 27.0766 1.20776 27.0726 1.21655 27.0678C1.24851 27.0509 1.28288 27.0333 1.32044 27.0132C1.32923 27.0084 1.33882 27.0036 1.34921 26.9979C1.4475 26.9474 1.56258 26.888 1.69683 26.8214L1.70882 26.815C1.77275 26.7829 1.84068 26.75 1.9126 26.7147C1.92139 26.7099 1.93019 26.7059 1.93898 26.7019C2.17472 26.5863 2.45363 26.4539 2.77169 26.3079C2.77888 26.3047 2.78527 26.3023 2.79167 26.2991C3.11692 26.1514 3.48373 25.9885 3.89129 25.816C3.89529 25.8136 3.90008 25.812 3.90488 25.8104C4.31724 25.6355 4.77115 25.4501 5.26662 25.2559C5.26902 25.2551 5.27062 25.2543 5.27302 25.2535C5.77088 25.0593 6.31111 24.8571 6.89129 24.6501C6.89209 24.6493 6.89289 24.6493 6.89289 24.6493C7.66886 24.3733 8.51675 24.0884 9.43577 23.8036C9.43817 23.8028 9.43977 23.8028 9.44217 23.802C10.1254 23.5901 10.8487 23.3775 11.6111 23.1681C11.6222 23.1649 11.6342 23.1616 11.647 23.1584C12.1545 23.0188 12.6803 22.8808 13.2229 22.7444C13.2237 22.7444 13.2253 22.7444 13.2269 22.7436C13.4874 22.6786 13.7528 22.6136 14.0213 22.5494C14.0445 22.5438 14.0676 22.539 14.0908 22.5334C14.6454 22.401 15.2168 22.2718 15.805 22.1458C15.8058 22.1458 15.8066 22.145 15.8074 22.145C16.33 21.7205 16.8726 21.3161 17.4312 20.9318C14.2235 21.54 11.5152 22.2501 9.36864 22.9097C3.6971 24.6501 0.650751 26.3777 0.524486 26.4507L0.132105 26.6746L0.0897499 27.1255C0.0545874 27.4866 -0.720585 36.086 3.01383 46.9433C5.20669 53.3176 8.51036 59.1351 12.8329 64.232C18.228 70.5942 25.2309 75.842 33.6451 79.8283L34.0119 80L34.3979 79.8283C39.0753 77.6129 43.3116 75.0091 47.0796 72.0418C46.9094 71.8372 46.7288 71.6149 46.5266 71.3718Z" fill="#FFFFFE"/>
<path fill-rule="evenodd" clip-rule="evenodd" d="M67.9568 27.1498L67.9248 26.682L67.5188 26.4501C67.3926 26.3779 64.3438 24.6503 58.6699 22.9091C56.1798 22.1452 52.9328 21.3115 49.0298 20.6487C49.5852 21.0226 50.1246 21.4142 50.6441 21.8234C61.2439 23.8655 67.0881 27.2099 67.0881 27.2099C67.0881 27.2099 68.1718 43.0518 58.8769 57.8041C58.944 58.1788 59.0231 58.5968 59.1086 59.0502C63.8156 51.8647 65.9901 44.428 66.9914 39.0896C68.2828 32.2081 67.9712 27.3528 67.9568 27.1498Z" fill="#FFFFFE"/>
<path fill-rule="evenodd" clip-rule="evenodd" d="M37.5284 39.8895C37.5284 39.8895 33.7924 41.1461 32.8358 37.4061C32.8358 37.4061 31.033 37.6291 30.2346 37.7952C23.541 39.1874 21.5591 43.0309 21.5591 46.4203C21.5591 51.0261 25.2767 54.7597 29.8638 54.7597C30.9323 54.7597 31.9536 54.5567 32.8918 54.1876C34.4789 53.5641 35.8694 52.4496 36.0732 50.4058C36.277 48.3621 34.2152 45.8987 29.3955 46.3994C29.3955 46.3994 31.4733 43.4714 34.7962 43.189C36.0436 43.0823 37.9208 43.2797 39.269 44.2434C39.269 44.2434 39.3105 43.9713 39.3049 42.9314C39.1459 42.1956 38.688 41.1677 37.5284 39.8895Z" fill="#FECD00"/>
<path fill-rule="evenodd" clip-rule="evenodd" d="M54.8725 65.0305L54.8061 64.1102L56.2542 64.3461C54.743 61.3146 56.398 59.3391 56.1031 58.0849C55.9905 57.6059 55.7859 57.1886 55.5437 56.8299C55.2544 57.0747 54.8085 57.2303 54.1133 57.1702L53.9438 59.055C53.9438 59.055 53.4356 57.8498 52.3128 57.4791C51.1892 57.1076 49.3727 56.3661 49.5885 53.987C49.8043 51.6071 49.1426 51.051 47.3573 50.9579C47.3573 50.9579 48.0477 50.6041 48.9148 50.5335L48.9124 50.5311C48.9124 50.5311 50.955 50.3321 52.2544 51.0655C53.9375 52.0155 54.6455 53.1597 54.6455 53.1597L55.8242 50.9499C55.137 49.3812 54.2299 48.631 53.4676 48.0757C52.2465 47.1866 51.6966 46.5423 51.6966 46.5423C51.6966 46.5423 50.9942 47.9529 47.6354 49.1493C44.2766 50.3449 42.5512 48.8677 42.5512 48.8677C42.5512 48.8677 43.3456 51.6231 42.1548 54.9435C41.7153 56.1688 41.1032 57.1565 40.511 57.9164V57.9268C40.5493 57.8755 40.5733 57.8418 40.5733 57.8418C40.5733 57.8418 40.6317 61.8097 43.4702 63.3423C46.3104 64.8757 47.5539 64.318 48.2867 67.4145C49.0195 70.5085 48.9524 72.2722 51.6319 73.1011C52.4806 73.2287 53.3237 73.183 53.5786 73.1613C53.4995 72.5811 53.3988 72.3773 53.3333 72.1382C53.2933 72.0187 53.2486 71.8903 53.1926 71.745C52.7963 70.7027 50.6897 68.9551 50.6897 68.9551L53.3765 69.6604L54.5896 71.006L54.5872 71.002C57.4833 70.8568 56.7049 67.6985 56.7049 67.6985C54.938 67.3093 54.8725 65.0305 54.8725 65.0305Z" fill="#FECD00"/>
<path fill-rule="evenodd" clip-rule="evenodd" d="M67.0937 27.3045C67.0937 27.3013 67.0929 27.2973 67.0929 27.2941C67.0913 27.2708 67.0905 27.2524 67.0897 27.2387C67.0897 27.2355 67.0889 27.2307 67.0889 27.2283C67.0881 27.2187 67.0881 27.2115 67.0881 27.2107V27.2098C67.0881 27.2098 67.0785 27.2042 67.0641 27.1962C67.0553 27.1914 67.0433 27.185 67.029 27.177C67.025 27.1745 67.021 27.1721 67.0162 27.1705C66.9954 27.1585 66.9698 27.1441 66.9394 27.128C66.9347 27.1256 66.9291 27.1224 66.9243 27.12C66.8963 27.1047 66.8635 27.0871 66.8276 27.0686C66.8212 27.0646 66.814 27.0614 66.8076 27.0574C66.7189 27.0109 66.611 26.9547 66.4823 26.8897C66.4791 26.8881 66.4767 26.8865 66.4735 26.8857C64.7178 25.9966 59.2485 23.4811 50.644 21.8233C50.8646 21.9966 51.0812 22.1732 51.2945 22.3529C51.5087 22.5318 51.7189 22.714 51.9259 22.8993C54.8204 25.4895 57.0324 28.6357 58.2439 32.0283C58.2463 32.0347 58.2479 32.0403 58.2503 32.0467C58.3574 32.3501 58.4573 32.651 58.5508 32.9487C58.6219 33.1757 58.6859 33.3996 58.749 33.6235C58.7522 33.6347 58.7546 33.6459 58.7586 33.6572C60.0604 38.3545 59.5505 42.2911 58.8473 44.8475C58.2935 46.8575 57.623 48.0162 57.623 48.0162C57.623 48.0162 58.0186 52.9815 58.8561 57.6932C58.8625 57.7285 58.8697 57.767 58.8769 57.804C61.6299 53.4333 63.4735 48.9687 64.7034 44.8475H64.7018C67.4381 35.68 67.1424 28.2169 67.0937 27.3045Z" fill="#FECD00"/>
<path fill-rule="evenodd" clip-rule="evenodd" d="M16.9167 6.81818V8.22062L22.5388 11.9869L46.4703 12L52.0833 8.22062V6.81818H16.9167ZM22.2296 10.5212L18.4485 7.90718H27.0617L23.136 10.5212C23.136 10.5212 22.6783 10.8427 22.2296 10.5212ZM24.2793 10.8658L28.205 8.24775C28.205 8.24775 28.6627 7.92527 29.1114 8.24775L32.8925 10.8658H24.2793ZM34.0438 10.5212L30.2637 7.90718H38.8729L34.9462 10.5212C34.9462 10.5212 34.4935 10.8427 34.0438 10.5212ZM35.963 10.8658L39.8927 8.24775C39.8927 8.24775 40.3464 7.92527 40.7991 8.24775L44.5812 10.8658H35.963ZM46.6118 10.5212C46.6118 10.5212 46.1581 10.8427 45.7054 10.5212L41.9233 7.90718H50.5425L46.6118 10.5212Z" fill="#FFFFFE"/>
<path fill-rule="evenodd" clip-rule="evenodd" d="M35.3226 1.09658C34.4704 1.08251 33.1515 1.06041 33.1515 1.58181C33.1515 1.87214 33.8089 1.94548 34.8147 2.03087C37.585 2.26696 41.2839 2.35335 41.2759 4.15463C41.2668 5.68869 38.4242 5.79718 34.6069 5.72887L26.6772 5.59325L27.0356 4.99851C27.0356 4.99851 27.2795 4.39574 27.8928 4.47209H32.6747C34.4212 4.48113 35.5133 4.53538 35.5133 4.02303C35.5173 3.67844 35.0325 3.64228 34.2446 3.56894C31.3879 3.30171 27.5887 3.58301 27.6248 1.65012C27.6519 0.130133 30.2637 -0.0557216 34.1311 0.0115878L40.9577 0.202465L40.7087 0.629428C40.7087 0.629428 40.5451 1.10059 39.8475 1.09658H35.3226Z" fill="#FFFFFE"/>
<path fill-rule="evenodd" clip-rule="evenodd" d="M11 8.2564V0.0436401H17.5786C23.4084 0.0436401 26.9135 0.343016 26.9135 2.98416C26.9135 5.68859 22.6556 5.68859 17.2203 5.68859H16.1553V8.2564H11ZM16.1553 4.472H17.1831C20.7244 4.472 22.8463 4.31327 22.8463 2.78926C22.8463 1.21 20.2938 1.09648 17.148 1.09648H16.1553V4.472Z" fill="#FFFFFE"/>
<path fill-rule="evenodd" clip-rule="evenodd" d="M54.8221 0.615372C54.8221 0.615372 54.7408 1.06444 54.1104 1.09658C54.1104 1.09658 52.396 1.04234 50.4648 1.04234C48.9602 1.04234 45.9449 1.1006 45.9228 2.82955C45.9037 4.16368 48.2214 4.3857 50.5461 4.3857H52.8497V2.77932H58V8.22033H52.8497V5.65253C52.8497 5.65253 50.6917 5.70678 49.9398 5.70678C45.2513 5.70678 41.8506 5.28886 41.8506 2.91997C41.8506 0.524956 44.6079 0.0115967 49.4048 0.0115967C52.66 0.0115967 55.0259 0.184391 55.0259 0.184391L54.8221 0.615372Z" fill="#FFFFFE"/>
<path fill-rule="evenodd" clip-rule="evenodd" d="M57.3394 0.319527L57.2089 0.317518L57.2049 0.568673L57.3354 0.569677C57.4087 0.570682 57.4609 0.562645 57.491 0.544562C57.5211 0.526479 57.5362 0.494331 57.5372 0.451132C57.5372 0.40492 57.5221 0.371767 57.491 0.351675C57.4599 0.331583 57.4087 0.320532 57.3394 0.319527ZM57.3605 0.248199C57.4579 0.250209 57.5291 0.267287 57.5763 0.29843C57.6235 0.330578 57.6466 0.379804 57.6456 0.445105C57.6446 0.494331 57.6285 0.534516 57.5994 0.567668C57.5693 0.599816 57.5281 0.619908 57.4789 0.625936L57.6295 0.949423L57.5101 0.947414L57.3665 0.640001L57.2039 0.636987L57.1999 0.9444L57.0955 0.942391L57.1055 0.245186L57.3605 0.248199ZM57.8754 0.616894C57.8764 0.542553 57.8644 0.473234 57.8393 0.406929C57.8142 0.341629 57.7771 0.283361 57.7279 0.23313C57.6767 0.18089 57.6185 0.140705 57.5532 0.112576C57.487 0.0844466 57.4177 0.0693773 57.3444 0.0683727C57.2732 0.0683727 57.2049 0.0804281 57.1407 0.105544C57.0754 0.131664 57.0182 0.169839 56.967 0.219065C56.9138 0.27231 56.8727 0.330578 56.8446 0.395878C56.8155 0.461178 56.8004 0.529493 56.7994 0.60082C56.7984 0.672148 56.8114 0.739458 56.8375 0.804758C56.8636 0.870058 56.9018 0.928326 56.953 0.981571C57.0042 1.03281 57.0624 1.07299 57.1266 1.10112C57.1909 1.12925 57.2591 1.14331 57.3294 1.14432C57.4017 1.14532 57.4699 1.13327 57.5372 1.10614C57.6044 1.07902 57.6636 1.04084 57.7168 0.989608C57.768 0.941386 57.8072 0.885127 57.8343 0.822841C57.8614 0.75955 57.8744 0.691236 57.8754 0.616894ZM57.3454 0.00206789C57.4288 0.00307251 57.507 0.0191464 57.5803 0.0502896C57.6526 0.0814327 57.7178 0.126641 57.774 0.184908C57.8283 0.241167 57.8704 0.306467 57.9005 0.380809C57.9296 0.455151 57.9437 0.532506 57.9427 0.614885C57.9407 0.697264 57.9246 0.774619 57.8945 0.845947C57.8634 0.91828 57.8202 0.981571 57.762 1.03682C57.7018 1.09409 57.6355 1.13829 57.5602 1.16843C57.486 1.19857 57.4087 1.21364 57.3284 1.21263C57.2481 1.21163 57.1708 1.19555 57.0995 1.16341C57.0263 1.13226 56.962 1.08605 56.9048 1.02778C56.8486 0.969515 56.8054 0.903211 56.7753 0.829873C56.7462 0.756536 56.7332 0.679181 56.7332 0.598811C56.7342 0.519446 56.7512 0.443095 56.7833 0.368754C56.8155 0.294412 56.8606 0.228107 56.9199 0.169839C56.9771 0.113581 57.0403 0.0713866 57.1126 0.0432572C57.1858 0.0141233 57.2631 0.00106327 57.3454 0.00206789Z" fill="#FFFFFE"/>
</svg>
