<svg width="24" height="24" viewBox="0 0 24 24" fill="none" xmlns="http://www.w3.org/2000/svg">
<path fill-rule="evenodd" clip-rule="evenodd" d="M21.9297 7.87638C21.8539 6.27424 21.488 4.85507 20.3146 3.68582C19.1456 2.51657 17.7267 2.15062 16.1249 2.07029C14.4741 1.97657 9.52593 1.97657 7.87507 2.07029C6.27775 2.14616 4.8589 2.51211 3.68544 3.68136C2.51199 4.85061 2.15059 6.26978 2.07027 7.87192C1.97658 9.52315 1.97658 14.4724 2.07027 16.1236C2.14612 17.7258 2.51199 19.1449 3.68544 20.3142C4.8589 21.4834 6.27328 21.8494 7.87507 21.9297C9.52593 22.0234 14.4741 22.0234 16.1249 21.9297C17.7267 21.8538 19.1456 21.4879 20.3146 20.3142C21.4835 19.1449 21.8494 17.7258 21.9297 16.1236C22.0234 14.4724 22.0234 9.52761 21.9297 7.87638ZM17.3385 7.85853C17.9989 7.85853 18.5343 7.32746 18.5343 6.6625C18.5343 6.00201 17.9989 5.46647 17.3385 5.46647C16.6782 5.46647 16.1428 6.00201 16.1428 6.6625C16.1428 7.32299 16.6737 7.85853 17.3385 7.85853ZM12.0022 6.87225C9.16453 6.87225 6.87563 9.16166 6.87563 12C6.87563 14.8383 9.16453 17.1277 12.0022 17.1277C14.8399 17.1277 17.1288 14.8383 17.1288 12C17.1288 9.16166 14.8399 6.87225 12.0022 6.87225ZM12.0022 15.3337C10.1684 15.3337 8.66927 13.8387 8.66927 12C8.66927 10.1613 10.164 8.66629 12.0022 8.66629C13.8405 8.66629 15.3352 10.1613 15.3352 12C15.3352 13.8387 13.836 15.3337 12.0022 15.3337ZM17.8963 19.7965C18.7752 19.4439 19.449 18.7701 19.797 17.8953C20.2447 16.77 20.2198 14.3083 20.2037 12.7126C20.201 12.4479 20.1985 12.207 20.1985 12C20.1985 11.793 20.201 11.5521 20.2037 11.2875C20.2198 9.69263 20.2447 7.23383 19.797 6.10465C19.4445 5.22548 18.7708 4.5516 17.8963 4.2035C16.7676 3.75808 14.2945 3.78181 12.6996 3.79711C12.4409 3.79959 12.2053 3.80185 12.0022 3.80185C11.7952 3.80185 11.5545 3.79941 11.2899 3.79673C9.69538 3.78057 7.23712 3.75566 6.1082 4.2035C5.22922 4.55606 4.55549 5.22995 4.20747 6.10465C3.76215 7.23357 3.78587 9.70717 3.80117 11.3024C3.80365 11.5612 3.80591 11.7969 3.80591 12C3.80591 12.207 3.80347 12.4479 3.80079 12.7125C3.78464 14.3074 3.75973 16.7662 4.20747 17.8953C4.55996 18.7745 5.23369 19.4484 6.1082 19.7965C7.23686 20.2419 9.70991 20.2182 11.3048 20.2029C11.5636 20.2004 11.7992 20.1981 12.0022 20.1981C12.2092 20.1981 12.45 20.2006 12.7146 20.2033C14.3091 20.2194 16.7673 20.2443 17.8963 19.7965Z" fill="white"/>
</svg>
