<svg width="16" height="16" viewBox="0 0 16 16" fill="none" xmlns="http://www.w3.org/2000/svg">
<path fill-rule="evenodd" clip-rule="evenodd" d="M10.5 0H15.5C15.7764 0 16 0.223625 16 0.5V5.5C16 5.77637 15.7764 6 15.5 6C15.2236 6 15 5.77637 15 5.5V1.70703L6.3535 10.3535C6.25588 10.4512 6.12794 10.5 6 10.5C5.87206 10.5 5.74412 10.4512 5.6465 10.3535C5.45119 10.1582 5.45119 9.84181 5.6465 9.6465L14.293 1H10.5C10.2236 1 10 0.776375 10 0.5C10 0.223625 10.2236 0 10.5 0ZM12 9.5C12 9.22388 12.2239 9 12.5 9C12.7762 9 13 9.22388 13 9.5V14C13 15.1046 12.1046 16 11 16H2C0.895437 16 0 15.1046 0 14V5C0 3.89544 0.895437 3 2 3H5.5C5.77619 3 6 3.22388 6 3.5C6 3.77612 5.77619 4 5.5 4H2C1.44775 4 1 4.44769 1 5V14C1 14.5523 1.44775 15 2 15H11C11.5523 15 12 14.5523 12 14V9.5Z" fill="#001A3F"/>
</svg>
