<svg width="79" height="70" viewBox="0 0 79 70" xmlns="http://www.w3.org/2000/svg">
    <g fill="none" fill-rule="evenodd">
        <path fill="#FECD00" d="M.337 70h19.154V50.826H.337zM75.536 48.212l.665-.088.663-.22c3.175-1.31 2.692-5.927-.663-6.6l-.665-.087-.707.087c-3.353.71-3.85 5.246-.663 6.6l.663.22.707.088"/>
        <path fill="#FFF" d="M.337 48.212V43.83l11.9-15.322H1.043v-5.005h18.534l-.043 4.295L7.592 42.855h11.986v5.357zM30.284 48.212l-1.416-.088c-3.584-.446-5.341-2.665-5.308-6.2V13.496h5.795v28.031c.014.982.469 1.217 1.415 1.284h2.124v5.401h-2.61M39.75 20.315h-4.997l4.467-6.333h7.431l-6.9 6.333zm-3.494 27.897h5.795v-24.71h-5.795v24.71zM59.656 23.194l.753.044c4.55.435 7.965 3.985 7.917 8.634v16.34h-5.795V33.555c.094-6.34-9.07-6.344-8.98 0v14.657h-5.75v-24.71h5.75v1.906l.62-.487c1.595-1.187 2.666-1.404 4.601-1.683l.884-.044"/>
        <g fill="#FECD00" fill-rule="nonzero">
            <path d="M3.413 2.373c-.95 0-1.58.4-1.918 1.144L1.47 2.488H0v8.246h1.622V7.628c.357.605.95.938 1.79.938 1.604 0 2.633-1.229 2.633-3.105 0-1.865-1.029-3.088-2.632-3.088zm-.381 4.759c-.878 0-1.465-.672-1.465-1.671 0-.981.587-1.635 1.465-1.635.883 0 1.38.63 1.38 1.635 0 1.017-.497 1.67-1.38 1.67zM11.507 8.566c1.924 0 3.05-1.283 3.05-3.1 0-1.81-1.126-3.093-3.05-3.093-1.93 0-3.056 1.284-3.056 3.094 0 1.816 1.126 3.1 3.056 3.1zm0-1.44c-.883 0-1.452-.636-1.452-1.66 0-1.016.569-1.646 1.452-1.646.877 0 1.44.63 1.44 1.647 0 1.023-.563 1.659-1.44 1.659zM23.528 5.51c-.12.629-.211 1.155-.32 1.815-.115-.732-.23-1.265-.351-1.852l-.636-2.985H20.25l-.636 2.967c-.127.587-.236 1.12-.35 1.846-.11-.66-.2-1.18-.327-1.81l-.6-3.003h-1.694l1.495 5.963h2.154l.744-3.348c.079-.326.133-.623.2-.992.067.369.127.666.2.992l.744 3.348h2.154l1.495-5.963h-1.695l-.605 3.021zM33.656 5.382c0-1.834-1.065-3.009-2.814-3.009-1.791 0-2.929 1.326-2.929 3.1 0 1.81 1.096 3.093 2.977 3.093 1.38 0 2.385-.653 2.657-1.937l-1.368-.212c-.151.545-.569.817-1.295.817-.762 0-1.234-.454-1.361-1.32h4.102c.025-.205.03-.369.03-.532zm-2.814-1.695c.678 0 1.15.4 1.216 1.205h-2.523c.14-.787.611-1.205 1.307-1.205zM37.702 2.488H36.28v5.957h1.61V5.763c0-1.362.968-1.828 2.02-1.61v-1.75c-1.1-.193-1.857.376-2.19 1.326l-.018-1.24zM47.696 5.382c0-1.834-1.065-3.009-2.814-3.009-1.79 0-2.928 1.326-2.928 3.1 0 1.81 1.095 3.093 2.977 3.093 1.38 0 2.384-.653 2.656-1.937l-1.367-.212c-.152.545-.57.817-1.295.817-.763 0-1.235-.454-1.362-1.32h4.103c.024-.205.03-.369.03-.532zm-2.814-1.695c.678 0 1.15.4 1.217 1.205h-2.524c.14-.787.612-1.205 1.307-1.205zM54.495 3.281c-.35-.593-.925-.908-1.779-.908-1.597 0-2.65 1.223-2.65 3.088 0 1.876 1.053 3.105 2.65 3.105.987 0 1.61-.454 1.937-1.253l.072 1.138h1.392V0h-1.622v3.281zm-1.422 3.85c-.877 0-1.38-.653-1.38-1.67 0-1.005.503-1.635 1.38-1.635.878 0 1.47.648 1.47 1.635 0 .999-.586 1.67-1.47 1.67zM66.34 2.373c-.842 0-1.429.315-1.792.902V0h-1.622v8.451h1.47l.025-1.065c.339.75.968 1.18 1.918 1.18 1.604 0 2.632-1.229 2.632-3.105 0-1.865-1.028-3.088-2.632-3.088zm-.382 4.759c-.877 0-1.464-.672-1.464-1.671 0-.981.587-1.635 1.464-1.635.883 0 1.38.63 1.38 1.635 0 1.017-.496 1.67-1.38 1.67zM74.3 6.06c-.115.442-.217.86-.314 1.253-.103-.411-.212-.853-.321-1.265l-.938-3.56h-1.833l1.948 5.963h.696l-.048.152c-.26.78-.938.974-2.264.635l-.278 1.393c1.791.442 3.455.066 4.12-2.028l1.998-6.115h-1.834L74.3 6.06z"/>
        </g>
    </g>
</svg>
