<svg width="102" height="41" viewBox="0 0 102 41" xmlns="http://www.w3.org/2000/svg">
    <g fill="none" fill-rule="evenodd">
        <path d="M50.841 15.32v4.785h1.635c.96 0 1.479-.378 1.479-1.535v-1.358c0-1.447-.544-1.891-1.842-1.891H50.84zm0-6.342v4.117h1.116c1.064 0 1.713-.4 1.713-1.647v-.868c0-1.112-.441-1.602-1.453-1.602H50.84zm5.684 1.358v.556c0 1.603-.57 2.626-1.843 3.138 1.531.512 2.128 1.69 2.128 3.338v1.268c0 2.404-1.48 3.695-4.334 3.695h-4.49V6.753h4.308c2.959 0 4.23 1.18 4.23 3.583zM61.093 13.317h3.918v2.226h-3.918v4.562h4.93v2.226h-7.785V6.753h7.785v2.225h-4.93zM70.027 8.978v4.785h1.115c1.064 0 1.713-.4 1.713-1.647V10.58c0-1.112-.441-1.602-1.453-1.602h-1.375zm3.113 13.353c-.155-.4-.259-.645-.259-1.914v-2.448c0-1.446-.57-1.98-1.868-1.98h-.986v6.342h-2.855V6.753h4.308c2.958 0 4.23 1.18 4.23 3.583v1.224c0 1.602-.597 2.648-1.869 3.16 1.428.511 1.895 1.69 1.895 3.316v2.403c0 .757.026 1.313.31 1.892H73.14zM80.407 17.39h2.751l-1.375-7.878-1.376 7.878zm6.514 4.941h-2.88l-.494-2.827h-3.503l-.493 2.827H76.93l2.906-15.578h4.179L86.92 22.33zM90.665 11.048V22.33h-2.57V6.753h3.582l2.933 9.324V6.753h2.543V22.33H94.22zM99.146 22.33H102V6.753h-2.854zM47.986 33.247v-.968l3.302-4.135h-3.193v-1.22h5.113v.977l-3.292 4.116h3.347v1.23zM55.638 33.247v-6.324h1.407v5.067h2.687v1.257zM62.998 26.271H61.71l1.144-1.6 1.399.587-1.255 1.013zm-1.352.652h1.407v6.324h-1.407v-6.324zM70.278 26.923h1.407v6.324h-1.407l-3.003-3.962v3.962h-1.407v-6.324h1.317l3.093 4.071z" fill="#FECD00"/>
        <path d="M33.268 24.825c-.356-.527-.045-1.542-.045-1.542l.46.644s-.2.475.033.748c.233.274.577.15.577.15l.168.228s-.836.299-1.193-.228m1.322-.513c-.308-.425-.827-1.642-1.751-2.386-.925-.744-2.215-.077-2.215-.077 1.117.058 1.53.406 1.396 1.893-.135 1.487 1.001 1.95 1.704 2.182.702.232 1.02.985 1.02.985l.106-1.178c1.445.126 1.194-1.227 1.194-1.227-.212.706-1.146.233-1.454-.192" fill="#20274F"/>
        <path d="M21.907 12.076s.067.364.716.786c.65.42 1.175.622 1.51 1.6 0 0-2.074.44-2.226-2.386m15.849 19.75a7.592 7.592 0 0 0-.765-.796c-.43-.38-.803-.12-1.14-.166-.376-.051-.526-.22-.526-.22s.041 1.425 1.147 1.667c.069.015.13.043.189.076.661.316.605 1.016.376 1.747-.249.795-1.368.822-1.368.822l-.144-.16-1.135-1.258-1.682-.44s1.319 1.091 1.567 1.743c.248.651.23.881.23.881s-.545.065-1.207-.034l.004.001s-.306-.03-.696-.167a2.653 2.653 0 0 1-.939-.543l-.013-.013a2.137 2.137 0 0 1-.225-.24c-.669-.85-1.017-1.724-2.006-2.577a5.759 5.759 0 0 0-1.05-.681 3.661 3.661 0 0 1-.573-.37c-.473-.307-.937-.706-1.405-1.48-.145-.24-.272-.456-.387-.654a14.206 14.206 0 0 1-.758-1.404c-.063-.132-.086-.192-.086-.192s.206-.182.604-.548a5.74 5.74 0 0 0 .377-.38c.427-.499.9-1.198 1.225-2.1.736-2.052.26-3.755.249-3.794v-.001s-.537-1.851-2.055-2.893c-.843-.602-2.017-.725-2.797-.66-2.08.177-3.379 2.008-3.379 2.008 3.015-.313 4.305 1.226 4.177 2.503-.127 1.278-.997 1.974-1.99 2.365a5.166 5.166 0 0 1-1.894.357c-2.869 0-5.195-2.334-5.195-5.213 0-2.118 1.24-4.52 5.427-5.39.5-.104 1.628-.243 1.628-.243.598 2.338 2.935 1.552 2.935 1.552.726.8 1.012 1.442 1.11 1.901 0-.26-.006-.594-.022-1.03-.038-1.12-.812-2.49-2.435-3.381-1.45-.797-1.397-2.16-1.397-2.16s.88 1.222 1.744 1.508c1.86.616 2.496.627 3.77 1.993.986 1.058 1.175 1.88 1.274 2.588v-.148c0-4.126-3.706-7.859-8.411-7.859s-8.728 3.884-8.728 8.604c0 4.72 3.83 8.408 8.396 8.408 1.032 0 3.268-.503 4.285-2.14.622-1 1.067-3.135-.71-4.279-1.066-.534-2.125-.519-2.125-.519s2.05-1.88 4.515.59c2.78 2.79.485 8.487-5.22 9.317l.04-.011c-7.664 1.287-14.08-4.087-14.08-11.791 0-1.13.133-2.23.382-3.284l-.002.003C8.246 6.6 14.123 1.63 21.154 1.63c7.48 0 13.644 5.644 14.493 12.918.113.963.052 1.939-.16 2.886l-.083.37s-2.124.08-3.23-2.778c.026.282.045.564.057.844.099 2.168 1.108 3.22 1.108 3.22s.344.401 1.108.958c.46.334 1.001.815 1.459 1.762l.015.034s.536 1.004.756 2.672c.04.3.133.946.25 1.733l.843 5.602-.014-.025m.062-5.768c-.525-2.944-.772-6.048-.772-6.048s2.451-4.218.389-9.992c-.866-2.423-2.55-4.645-4.755-6.378C29.853 1.417 26.172 0 22.268 0c-4.367 0-8.369 1.394-11.38 3.841-6 1.282-9.29 3.165-9.29 3.165S-.49 28.621 22.278 39.399h.007a42.595 42.595 0 0 0 7.81-4.804c.595.714.889 1.15 1.64 1.48 2.179.958 3.783.045 3.783.045s1.504-.111 2.372-1.377c1.365-1.992.306-6.56-.072-8.685" fill="#001A3F"/>
        <path d="M32.606 35.522a2.829 2.829 0 0 1-.874-.486c.26.224.564.38.874.486M31.654 34.966l.013.012-.013-.012" fill="#FFE51F"/>
        <path d="M21.907 12.076s.067.364.716.785c.65.422 1.175.623 1.51 1.6 0 0-2.074.441-2.226-2.385M33.223 23.283l.46.644s-.2.475.033.748c.233.274.577.15.577.15l.169.227s-.837.3-1.194-.227c-.356-.527-.045-1.542-.045-1.542M36.472 32.311s.487 1.975-1.325 2.066l.522.579s1.12-.027 1.368-.822c.235-.748.29-1.464-.42-1.77a.63.63 0 0 0-.145-.053" fill="#FFFFFE"/>
        <path d="M32.231 15.87c-.262-5.79-3.075-12.15-12.945-12.15-5.604 0-10.399 3.827-12.354 9.24v.002a14.235 14.235 0 0 0-.45 3.56c0 7.704 6.416 13.078 14.08 11.791.451-.132 4.783-1.49 4.952-5.123.116-2.496-1.027-3.685-2.162-4.253 1.777 1.143 1.332 3.277.71 4.278-1.017 1.637-3.254 2.14-4.285 2.14-4.566 0-8.396-3.687-8.396-8.407 0-4.72 4.023-8.605 8.728-8.605s8.41 3.733 8.41 7.86c0 1.75.56 3.739 4.82 2.886 0 0-1.01-1.051-1.108-3.22" fill="#FFFFFE"/>
        <path d="M25.742 19.008c-2.464-2.472-4.515-.591-4.515-.591s4.512-.07 4.287 4.773c-.178 3.832-4.992 5.135-4.992 5.135 5.705-.83 8-6.528 5.22-9.317M31.206 32.134c-.459-1.935-1.237-1.587-3.013-2.545-1.776-.958-1.812-3.438-1.812-3.438-.004-.002-.188.275-.613.669-.397.368-.604.547-.604.547s.024.063.09.198c.127.274.388.804.754 1.4.115.197.243.413.387.654.467.773.931 1.172 1.405 1.479.185.143.375.27.573.37.426.218.765.446 1.05.68.989.853 1.337 1.728 2.006 2.578.668.85 1.873.963 1.873.963-1.68-.517-1.638-1.62-2.096-3.555M35.648 14.547C34.798 7.274 28.633 1.63 21.154 1.63c-7.03 0-12.908 4.97-14.292 11.61l.003-.002c.021-.092.042-.185.066-.277 1.956-5.414 6.75-9.24 12.355-9.24 9.392 0 12.394 5.758 12.888 11.305 1.107 2.857 3.23 2.777 3.23 2.777l.083-.37a8.608 8.608 0 0 0 .16-2.886" fill="#D9AF00"/>
        <path d="M28.52 16.35c-.099-.709-.288-1.53-1.275-2.588-1.273-1.367-1.908-1.377-3.769-1.993-.863-.286-1.744-1.507-1.744-1.507s-.054 1.363 1.398 2.159c1.623.89 2.397 2.26 2.435 3.382.051 1.522 0 1.85 0 1.85 1.517 1.04 2.053 2.891 2.053 2.891l.001.002-.001-.004s1.08.924 3.18.176c1.958-.696 2.472-1.508 2.534-1.616l.007-.013c-4.141.829-4.786-1.028-4.818-2.74" fill="#D9AF00"/>
        <path d="M36.677 24.516c-.22-1.667-.756-2.672-.756-2.672l-.738 1.381s-.442-.715-1.495-1.309c-.813-.459-2.09-.334-2.09-.334v.001c.396-.032.85.03 1.24.343.925.744 1.444 1.96 1.752 2.386.308.424 1.242.897 1.454.193 0 0 .12.659-.299 1.014.151.224.28.484.35.784.185.784-.85 2.018.095 3.913l-.906-.148.041.576s.15.169.525.22c.338.046.711-.214 1.14.166.43.38.78.812.78.812s-.94-6.174-1.093-7.326" fill="#FFFFFE"/>
        <path d="M30.105 34.607c-2.21 1.738-4.796 3.36-7.82 4.792h-.006C3.068 30.305 1.553 13.497 1.548 8.465c-.001-.93.05-1.459.05-1.459l.015-.008.015-.009a.113.113 0 0 0 .013-.007l.041-.022.002-.002.062-.032.015-.009.065-.034.018-.01.217-.11.008-.004.127-.062a23.051 23.051 0 0 1 .537-.254l.013-.006c.204-.092.433-.194.688-.302l.009-.004c.258-.109.542-.225.852-.346l.004-.002a40.694 40.694 0 0 1 2.604-.906h.004a43.451 43.451 0 0 1 2.365-.662h.002c.163-.04.329-.082.497-.122l.043-.01c.347-.082.705-.163 1.073-.242h.001a15.97 15.97 0 0 1 1.016-.759c-2.007.38-3.7.824-5.043 1.237-3.548 1.087-5.454 2.167-5.533 2.213l-.245.14-.027.281c-.022.226-.507 5.6 1.83 12.387a33.455 33.455 0 0 0 6.142 10.805c3.375 3.976 7.755 7.256 13.019 9.748l.23.107.24-.107c2.927-1.385 5.577-3.012 7.934-4.867-.107-.128-.22-.267-.346-.419M43.51 6.969l-.02-.293-.254-.145c-.079-.045-1.986-1.125-5.535-2.213a48.138 48.138 0 0 0-6.03-1.413c.347.234.685.479 1.01.735 6.63 1.276 10.286 3.366 10.286 3.366s.678 9.901-5.137 19.122c.042.234.092.495.145.778 2.945-4.49 4.305-9.139 4.932-12.475.807-4.3.612-7.336.603-7.462" stroke="#FFF" stroke-width=".5" fill="#FFFFFE"/>
        <path d="M24.476 14.931s-2.337.785-2.936-1.552c0 0-1.127.14-1.627.243-4.187.87-5.427 3.272-5.427 5.39 0 2.88 2.326 5.213 5.195 5.213.669 0 1.308-.127 1.894-.358.993-.39 1.863-1.086 1.99-2.363.128-1.278-1.162-2.817-4.177-2.504 0 0 1.3-1.83 3.379-2.007.78-.067 1.954.057 2.798.66 0 0 .026-.17.022-.82-.1-.46-.386-1.103-1.111-1.902M35.325 30.644l-.041-.575.906.147c-.946-1.894.09-3.13-.095-3.913-.07-.3-.198-.56-.35-.784-.18.153-.46.25-.895.212l-.105 1.178s-.318-.753-1.02-.985c-.704-.232-1.84-.695-1.705-2.182.135-1.488-.279-1.835-1.396-1.893 0 0 .432-.221.975-.266l-.002-.001s1.278-.124 2.09.334c1.054.594 1.496 1.309 1.496 1.309l.738-1.381c-.43-.98-.998-1.45-1.474-1.797-.764-.555-1.108-.958-1.108-.958s-.44.882-2.54 1.63c-2.102.747-3.181-.177-3.181-.177s.497 1.722-.248 3.798a6.706 6.706 0 0 1-1.028 1.858v.006l.039-.053s.036 2.48 1.812 3.438c1.776.958 2.554.61 3.013 2.545.458 1.934.416 3.036 2.092 3.554.531.08 1.059.051 1.218.038-.05-.363-.112-.49-.153-.64a5.657 5.657 0 0 0-.088-.245c-.248-.652-1.566-1.744-1.566-1.744l1.68.44.76.842-.002-.003c1.812-.09 1.325-2.064 1.325-2.064-1.106-.244-1.147-1.668-1.147-1.668M42.97 7.065V7.06l-.002-.035v-.006l-.001-.011-.015-.01-.022-.011-.008-.004a1.396 1.396 0 0 0-.048-.027l-.01-.005a2.727 2.727 0 0 0-.06-.032l-.013-.007c-.055-.03-.122-.064-.203-.105l-.005-.002c-1.099-.556-4.52-2.128-9.903-3.164a15.412 15.412 0 0 1 .802.672c1.81 1.619 3.195 3.585 3.952 5.706l.004.011a16.93 16.93 0 0 1 .312.986l.006.02c.815 2.937.496 5.397.056 6.995-.347 1.256-.766 1.98-.766 1.98s.248 3.103.771 6.048l.013.07c1.723-2.732 2.876-5.523 3.645-8.098C43.184 12.3 43 7.636 42.97 7.065" fill="#FECD00"/>
    </g>
</svg>
