<svg width="20" height="16" viewBox="0 0 20 16" fill="none" xmlns="http://www.w3.org/2000/svg">
<path fill-rule="evenodd" clip-rule="evenodd" d="M13 8V2C13 0.898438 12.1016 0 11 0H2C0.898438 0 0 0.898438 0 2V8C0 9.10156 0.898438 10 2 10H3V11.625C3 11.8477 3.17969 12 3.375 12C3.44922 12 3.52734 11.9766 3.59766 11.9258L7 10H11C12.1016 10 13 9.10156 13 8ZM18 4H14V5H18C18.5514 5 19 5.44859 19 6V12C19 12.5514 18.5514 13 18 13H16V14.5489L13.4926 13.1298L13.2634 13H10C9.44859 13 9 12.5514 9 12V11H8V12C8 13.1016 8.89844 14 10 14H13L16.4023 15.9258C16.4727 15.9766 16.5508 16 16.625 16C16.8203 16 17 15.8477 17 15.625V14H18C19.1016 14 20 13.1016 20 12V6C20 4.89844 19.1016 4 18 4ZM6.50744 9.12975L6.73663 9H11C11.5514 9 12 8.55141 12 8V2C12 1.44859 11.5514 1 11 1H2C1.44859 1 1 1.44859 1 2V8C1 8.55141 1.44859 9 2 9H4V10.5489L6.50744 9.12975Z" fill="#A29090"/>
</svg>
