<svg width="24" height="24" viewBox="0 0 24 24" fill="none" xmlns="http://www.w3.org/2000/svg">
<path fill-rule="evenodd" clip-rule="evenodd" d="M12 0C5.37255 0 0 5.37255 0 12C0 18.6274 5.37255 24 12 24C18.6274 24 24 18.6274 24 12C24 5.37255 18.6274 0 12 0ZM16.8 11.2H12.8H11.2H7.2C6.7578 11.2 6.4 11.5578 6.4 12C6.4 12.4422 6.7578 12.8 7.2 12.8H11.2H12.8H16.8C17.2422 12.8 17.6 12.4422 17.6 12C17.6 11.5578 17.2422 11.2 16.8 11.2ZM1.6 12C1.6 17.7346 6.26545 22.4 12 22.4C17.7346 22.4 22.4 17.7346 22.4 12C22.4 6.26545 17.7346 1.6 12 1.6C6.26545 1.6 1.6 6.26545 1.6 12Z" fill="#001A3F"/>
</svg>
