<svg width="16" height="16" viewBox="0 0 16 16" fill="none" xmlns="http://www.w3.org/2000/svg">
<path fill-rule="evenodd" clip-rule="evenodd" d="M12.1188 3.50003H5.5C3.01856 3.50003 1 5.51859 1 8.00002C1 8.2764 0.776375 8.50002 0.5 8.50002C0.223625 8.50002 0 8.2764 0 8.00002C0 4.96781 2.46728 2.50004 5.5 2.50004H12.1188L10.1797 0.883697C9.96778 0.706948 9.93897 0.391511 10.1157 0.179606C10.2925 -0.0313313 10.6079 -0.0616125 10.8203 0.116137L13.8203 2.61626C13.9341 2.71097 14 2.8516 14 3.00004C14 3.14847 13.9341 3.2891 13.8203 3.38382L10.8203 5.88381C10.7266 5.96193 10.6133 6.00003 10.5005 6.00003C10.3569 6.00003 10.2148 5.9385 10.1157 5.82034C9.93897 5.60843 9.96778 5.293 10.1797 5.11625L12.1188 3.50003ZM15 8.00002C15 7.72365 15.2236 7.50002 15.5 7.50002C15.7764 7.50002 16 7.72365 16 8.00002C16 11.0322 13.5327 13.5 10.5 13.5H3.88116L5.82031 15.1162C6.03222 15.293 6.06103 15.6084 5.88428 15.8203C5.78516 15.9385 5.64306 16 5.4995 16C5.38672 16 5.27344 15.9619 5.17969 15.8838L2.17969 13.3838C2.06591 13.2891 2 13.1484 2 13C2 12.8516 2.06591 12.7109 2.17969 12.6162L5.17969 10.1162C5.39306 9.93945 5.708 9.96877 5.88428 10.1797C6.06103 10.3916 6.03222 10.707 5.82031 10.8838L3.88116 12.5H10.5C12.9814 12.5 15 10.4815 15 8.00002Z" fill="#A29090"/>
</svg>
