<svg width="16" height="16" viewBox="0 0 16 16" fill="none" xmlns="http://www.w3.org/2000/svg">
<path fill-rule="evenodd" clip-rule="evenodd" d="M14.6815 0.439404L15.5606 1.31865C16.1465 1.90446 16.1464 2.85424 15.5606 3.43999L8.07512 10.9245C7.79596 11.2037 7.44043 11.3939 7.05328 11.4714L4.44859 11.9924C4.42322 11.9974 4.39819 11.9999 4.37365 11.9999C4.14415 11.9999 3.95997 11.7882 4.00731 11.5512L4.52806 8.94662C4.60553 8.5594 4.79584 8.20378 5.07506 7.92453L12.5602 0.439404C12.8531 0.146499 13.2369 0 13.6208 0C14.0047 0 14.3886 0.146499 14.6815 0.439404ZM13 10.5C13 10.2239 13.2239 10 13.5 10C13.7762 10 14 10.2239 14 10.5V14C14 15.1046 13.1046 16 12 16H2C0.895437 16 0 15.1046 0 14V4.00005C0 2.89549 0.895437 2.00005 2 2.00005H5.5C5.77618 2.00005 6 2.22393 6 2.50005C6 2.77618 5.77618 3.00005 5.5 3.00005H2C1.44775 3.00005 1 3.44774 1 4.00005V14C1 14.5523 1.44775 15 2 15H12C12.5523 15 13 14.5523 13 14V10.5ZM7.36803 10.2174C7.22803 10.3574 7.05134 10.452 6.85718 10.4908L5.17175 10.828L5.50865 9.14277C5.54753 8.94846 5.64209 8.77168 5.78222 8.63162L11.3533 3.06042L12.9396 4.64664L7.36803 10.2174ZM13.6466 3.93961L14.8536 2.73283C14.981 2.60546 15 2.45665 15 2.37933C15 2.30193 14.981 2.15318 14.8536 2.02574L13.9744 1.14643C13.847 1.01903 13.6981 0.999996 13.6208 0.999996C13.5435 0.999996 13.3947 1.01903 13.2673 1.14643L12.0604 2.3534L13.6466 3.93961Z" fill="#A29090"/>
</svg>
