<svg width="20" height="14" viewBox="0 0 20 14" fill="none" xmlns="http://www.w3.org/2000/svg">
<path fill-rule="evenodd" clip-rule="evenodd" d="M20 3.68162C20 3.958 19.7764 4.18162 19.5 4.18162C18.7729 4.18162 18.1816 4.77344 18.1816 5.5C18.1816 6.22656 18.7729 6.81838 19.5 6.81838C19.7764 6.81838 20 7.042 20 7.31838V9C20 10.1025 19.103 11 18 11H5C3.89697 11 3 10.1025 3 9V2C3 0.897469 3.89697 0 5 0H18C19.103 0 20 0.897469 20 2V3.68162ZM16 2C15.7239 2 15.5 2.22381 15.5 2.5C15.5 2.77612 15.7239 3 16 3C16.2761 3 16.5 2.77612 16.5 2.5C16.5 2.22381 16.2761 2 16 2ZM15.5 4.5C15.5 4.22381 15.7239 4 16 4C16.2761 4 16.5 4.22381 16.5 4.5C16.5 4.77612 16.2761 5 16 5C15.7239 5 15.5 4.77612 15.5 4.5ZM16 6C15.7239 6 15.5 6.22381 15.5 6.5C15.5 6.77612 15.7239 7 16 7C16.2761 7 16.5 6.77612 16.5 6.5C16.5 6.22381 16.2761 6 16 6ZM16 8C15.7239 8 15.5 8.22381 15.5 8.5C15.5 8.77612 15.7239 9 16 9C16.2761 9 16.5 8.77612 16.5 8.5C16.5 8.22381 16.2761 8 16 8ZM19 7.76369V9C19 9.55175 18.5513 10 18 10H5C4.44872 10 4 9.55175 4 9V2C4 1.44825 4.44872 1 5 1H18C18.5513 1 19 1.44825 19 2V3.23631C17.9609 3.46484 17.1816 4.39356 17.1816 5.5C17.1816 6.60644 17.9609 7.53516 19 7.76369ZM3 13H16.5C16.7759 13 17 13.2236 17 13.5C17 13.7764 16.7759 14 16.5 14H3C1.34278 14 0 12.6572 0 11V2.5C0 2.22362 0.224125 2 0.5 2C0.775875 2 1 2.22362 1 2.5V11C1 12.1055 1.89503 13 3 13Z" fill="#A29090"/>
</svg>
