<svg width="24" height="24" viewBox="0 0 24 24" fill="none" xmlns="http://www.w3.org/2000/svg">
<path fill-rule="evenodd" clip-rule="evenodd" d="M21.3766 4.47858C22.4092 4.74196 23.2225 5.51804 23.4985 6.50346C24 8.28958 24 12.0162 24 12.0162C24 12.0162 24 15.7428 23.4985 17.5289C23.2225 18.5143 22.4092 19.258 21.3766 19.5214C19.505 20 12 20 12 20C12 20 4.49503 20 2.62336 19.5214C1.59077 19.258 0.777523 18.5143 0.501503 17.5289C0 15.7428 0 12.0162 0 12.0162C0 12.0162 0 8.28958 0.501503 6.50346C0.777523 5.51804 1.59077 4.742 2.62336 4.47858C4.49503 4 12 4 12 4C12 4 19.505 4 21.3766 4.47858ZM15.8181 12.0163L9.54544 8.63271V15.3996L15.8181 12.0163Z" fill="white"/>
</svg>
